<?xml version="1.0" standalone="no"?>
<!DOCTYPE svg PUBLIC "-//W3C//DTD SVG 20010904//EN"
 "http://www.w3.org/TR/2001/REC-SVG-20010904/DTD/svg10.dtd">
<svg version="1.0" xmlns="http://www.w3.org/2000/svg"
 width="500.000000pt" height="500.000000pt" viewBox="0 0 500.000000 500.000000"
 preserveAspectRatio="xMidYMid meet">
<metadata>
Created by potrace 1.14, written by Peter Selinger 2001-2017
</metadata>
<g transform="translate(0.000000,500.000000) scale(0.100000,-0.100000)"
fill="#000000" stroke="none">
<path d="M0 2500 l0 -2500 2500 0 2500 0 0 2500 0 2500 -2500 0 -2500 0 0
-2500z m849 1330 c80 -193 148 -345 152 -338 3 7 71 165 149 351 l143 337 153
0 152 0 -232 -540 -231 -540 -151 0 -152 0 -195 458 c-108 251 -211 494 -231
540 l-35 82 167 0 167 0 144 -350z m1856 -184 c129 -292 235 -534 235 -538 0
-5 -71 -7 -157 -6 l-157 3 -41 100 -42 100 -229 3 -229 2 -40 -102 -41 -103
-158 -3 c-89 -1 -156 1 -154 6 1 5 109 248 238 541 l234 531 154 -2 153 -3
234 -529z m955 248 l235 -285 3 286 2 285 150 0 150 0 0 -540 0 -540 -128 0
-128 0 -234 284 -235 284 -3 -284 -2 -284 -150 0 -150 0 0 540 0 540 128 0
127 -1 235 -285z m-920 -1394 l0 -120 -1175 0 -1175 0 0 120 0 120 1175 0
1175 0 0 -120z m601 82 c31 -35 37 -74 17 -117 -17 -38 -58 -55 -128 -55 l-60
0 0 106 0 106 71 -4 c65 -3 74 -6 100 -36z m299 23 c0 -12 -13 -15 -60 -15
l-60 0 0 -30 c0 -30 0 -30 56 -30 73 0 70 -24 -4 -28 -50 -3 -52 -4 -52 -33 0
-29 0 -29 60 -29 47 0 60 -3 60 -15 0 -12 -15 -15 -75 -15 l-75 0 0 105 0 105
75 0 c60 0 75 -3 75 -15z m159 -65 c19 -44 37 -80 40 -80 4 0 22 36 41 80 19
44 40 80 47 80 19 0 17 -5 -29 -112 -29 -65 -48 -98 -59 -98 -11 0 -31 33 -62
105 -39 89 -43 105 -28 105 12 0 27 -23 50 -80z m-2989 -720 l0 -200 205 0
205 0 0 200 0 200 155 0 155 0 0 -540 0 -540 -155 0 -155 0 0 210 0 210 -205
0 -205 0 0 -210 0 -210 -155 0 -155 0 0 540 0 540 155 0 155 0 0 -200z m1380
-340 l0 -540 -155 0 -155 0 0 540 0 540 155 0 155 0 0 -540z m1198 423 l-3
-118 -272 -3 -273 -2 0 -90 0 -90 240 0 240 0 0 -115 0 -115 -240 0 -240 0 0
-95 0 -95 283 -2 282 -3 3 -117 3 -118 -436 0 -435 0 0 540 0 540 425 0 426 0
-3 -117z m812 -167 l235 -284 3 284 2 284 150 0 150 0 0 -540 0 -540 -127 0
-128 1 -235 285 -235 284 -3 -285 -2 -285 -150 0 -150 0 0 540 0 540 128 0
127 0 235 -284z"/>
<path d="M2301 3849 c-5 -13 -32 -82 -61 -154 -29 -71 -54 -136 -57 -142 -4
-10 26 -13 132 -13 106 0 136 3 132 13 -3 6 -33 79 -66 161 -33 82 -63 151
-66 154 -2 3 -9 -6 -14 -19z"/>
<path d="M3200 2515 l0 -75 48 0 c38 0 53 5 70 23 52 55 10 127 -74 127 l-44
0 0 -75z"/>
</g>
</svg>
